<svg width="368" height="298" viewBox="0 0 368 298" fill="none" xmlns="http://www.w3.org/2000/svg">
<g clip-path="url(#clip0)">
<path d="M238.526 36.0369H149.191C147.361 36.0369 145.764 37.634 145.764 39.4639V62.1219H56.4297C54.5997 62.1219 53.0027 63.719 53.0027 65.5489V143.105C53.0027 219.497 113.923 283.345 190.448 284.244C268.337 285.175 331.553 222.492 331.553 145.168V13.4122C331.553 11.5822 329.956 9.9852 328.126 9.9852H242.219C240.389 9.9852 238.792 11.5822 238.792 13.4122V36.0702H238.526V36.0369Z" fill="#FF788F" stroke="white" stroke-width="2" stroke-miterlimit="10" stroke-linecap="round" stroke-linejoin="round"/>
<path d="M59.5 96.5C59.5 96.5 49.5 99 42 105.5C36.0001 111 30.9061 117.168 27.0001 125C23.6608 131.696 21 144.5 22.4999 153C27.441 181 35.901 187.49 78.3224 223.989L89.0359 202.262L76.426 139.279L59.5 96.5Z" fill="#FF788F"/>
<path d="M239 274.5C239 274.5 227.33 287.117 218 290.5C209.5 295 197.591 294.806 188.848 294.401C181.374 294.055 169.319 289.575 162 285C157.05 281.906 132 265.5 115.5 250C112.485 246.496 106.758 242.015 104 238C100.492 232.895 96.9263 227.169 95 221C93.6078 216.542 92.0419 211.853 91 207C90.2987 203.734 91 200.5 91 197L92 188L95 179.5L99 172L105 164.5L113.5 157L124.5 161L135.5 181.5L130 188.5L126.5 194L125.5 200.5L126 206.5L133 218L151.5 235.5L172.5 251L182 257L190 259.5L196.5 260L200 260L204 259L209 255.5L213 251.5L215 246L215.5 240L214 235L212 230L207.5 223L196 212L179 198L179 186L176.5 174L172.5 163.5L165 150.5L174.5 154.5L183.5 159L204.5 174.5L218.5 185.5L232 198L239 208L243.5 215.5L247 224L249.5 234L250 244L249 254L245 265L239 274.5Z" fill="white"/>
<path d="M239.657 97.0905C239.224 94.1626 237.694 91.5341 235.764 89.4047C233.668 87.1423 231.073 85.3789 228.211 84.3474C226.747 83.8151 225.217 83.4824 223.686 83.6155C222.189 83.8151 220.659 84.5138 219.76 85.7781C218.829 87.0757 219.128 89.7042 220.592 91.3012C220.559 91.3345 220.526 91.3678 220.492 91.401C220.193 91.6339 219.927 91.8668 219.627 92.0997C219.394 92.2661 219.195 92.4324 218.995 92.6653C218.795 92.865 218.562 93.0646 218.363 93.2642C212.041 85.3123 211.343 75.0979 211.343 75.0979L239.956 82.0184C242.585 92.8317 255.394 109.634 255.394 109.634L236.396 105.275C238.725 104.177 240.089 100.018 239.657 97.0905Z" fill="black" stroke="black" stroke-width="1.2" stroke-miterlimit="10" stroke-linecap="round" stroke-linejoin="round"/>
<path d="M243.949 21.2976L272.529 28.2181C261.383 35.5379 239.956 82.085 239.956 82.085L211.343 75.1645C211.343 75.1312 232.803 28.6174 243.949 21.2976Z" fill="white"/>
<path d="M234.966 98.5545C235.065 99.5859 234.699 100.617 233.934 101.283C233.003 102.148 232.171 103.113 231.472 104.177C229.043 107.871 228.045 112.662 227.779 117.187C227.446 123.475 228.112 129.896 226.448 135.952C224.285 143.87 217.897 150.525 210.045 153.053C202.226 155.582 193.176 153.852 186.788 148.695C180.4 143.505 176.906 135.02 177.738 126.835C177.905 125.338 178.204 123.874 178.603 122.41C178.903 121.346 179.235 120.314 179.635 119.283C181.365 114.924 183.993 110.865 186.821 107.105C190.947 101.649 195.572 96.5914 199.065 90.7356C199.398 90.17 200.23 90.1367 200.596 90.7023C203.324 95.0942 204.722 100.318 204.489 105.508C204.222 111.164 202.06 117.32 198.633 121.811C198.067 122.543 197.735 123.442 197.601 124.34C197.369 125.904 197.735 127.567 198.733 128.765C200.296 130.695 203.224 131.394 205.487 130.362C208.082 129.198 209.38 126.27 210.112 123.508C211.21 119.383 211.509 115.057 211.975 110.798C212.441 106.54 213.139 102.248 214.969 98.3548C215.801 96.5582 216.966 94.828 218.33 93.3973C219.893 91.7005 221.79 90.4029 223.953 89.6377C226.714 88.706 230.041 90.4694 232.171 92.499C233.868 94.0295 234.733 96.2587 234.966 98.5545Z" fill="#FF788F"/>
<path d="M205.454 131.726C207.017 132.924 208.149 134.754 208.481 136.717C212.574 132.658 214.67 127.534 215.834 121.911C216.966 116.288 217.398 110.499 218.995 104.976C220.592 99.4528 223.62 94.0628 228.611 91.1682C227.679 90.1367 226.548 89.5711 225.184 89.6377C223.82 89.7042 222.489 90.2366 221.324 90.9353C217.032 93.5637 214.603 98.4879 213.505 103.412C212.407 108.336 212.374 113.427 211.609 118.418C210.844 123.408 209.113 128.266 205.454 131.726Z" fill="white"/>
<path d="M209.113 146.865C204.156 148.196 198.633 147.231 194.374 144.336C190.115 141.442 187.254 136.617 186.688 131.493C185.89 124.307 189.45 117.419 193.043 111.131C196.637 104.843 200.463 98.1885 200.296 90.9685C194.008 97.0905 188.086 103.712 183.661 111.298C179.269 118.883 176.973 128.133 179.435 136.551C181.298 142.872 185.856 148.362 191.746 151.357C197.635 154.351 204.755 154.784 210.943 152.554C210.211 153.12 210.112 152.122 209.479 151.456C208.847 150.791 208.614 149.826 208.681 148.928C208.781 147.963 208.781 147.697 209.113 146.865Z" fill="white"/>
<path d="M208.548 147.065C215.468 144.569 221.69 140.144 226.282 134.388C224.884 141.109 221.291 146.965 215.602 150.858C214.404 151.689 213.073 152.421 211.609 152.654C210.145 152.887 208.548 152.488 207.583 151.323C206.685 150.192 207.151 147.564 208.548 147.065Z" fill="white"/>
<path d="M100.614 232.573C95.6902 228.613 89.0692 224.122 84.1449 220.162C69.9712 208.75 55.6977 197.205 44.2522 183.065C32.8067 168.924 24.2559 151.789 23.3908 133.623C20.2633 149.061 23.0581 165.198 32.5073 180.602C39.2282 191.582 53.4019 205.024 65.779 214.772C78.2891 224.621 89.901 234.902 106.969 241.223C103.809 239.061 104.108 237.663 100.614 232.573Z" fill="white"/>
<path d="M135.15 207.053C142.57 217.401 155.247 223.756 167.956 223.623C167.424 224.321 166.858 225.02 166.26 225.686C162.367 230.211 157.975 233.837 153.25 236.632C146.463 231.242 140.308 225.985 136.515 222.225C133.853 219.597 129.76 214.972 127.398 209.382C130.293 209.083 132.855 208.351 135.15 207.053Z" fill="black"/>
<path d="M134.851 169.49C137.613 172.551 140.773 177.109 142.67 182.166C137.979 182.632 134.186 184.395 131.158 187.556C130.892 182 129.394 176.477 126.799 171.553C123.738 165.73 119.114 160.706 113.557 157.146C115.187 155.948 116.918 154.883 118.648 153.919C124.936 159.442 130.825 165.065 134.851 169.49Z" fill="black"/>
<path d="M218.396 93.3308C219.96 91.634 221.857 90.3364 224.019 89.5711C226.781 88.6395 230.108 90.4029 232.237 92.4325C233.901 94.0295 234.766 96.2587 234.999 98.5545C235.099 99.5859 234.733 100.617 233.968 101.283C233.036 102.148 232.204 103.113 231.505 104.177C229.077 107.871 228.078 112.662 227.812 117.187C227.48 123.475 228.145 129.896 226.481 135.952C224.319 143.871 217.931 150.525 210.078 153.054C202.26 155.582 193.21 153.852 186.822 148.695C180.433 143.505 176.94 135.02 177.772 126.835C177.938 125.338 178.237 123.874 178.637 122.41C178.936 121.346 179.269 120.314 179.668 119.283C181.398 114.924 184.027 110.865 186.855 107.105C190.981 101.649 195.605 96.5914 199.099 90.7356C199.432 90.17 200.263 90.1367 200.629 90.7024C203.358 95.0942 204.755 100.318 204.522 105.508C204.256 111.164 202.093 117.32 198.666 121.811C198.101 122.543 197.768 123.442 197.635 124.34C197.402 125.904 197.768 127.567 198.766 128.765C200.33 130.695 203.258 131.394 205.52 130.362C208.115 129.198 209.413 126.27 210.145 123.508C211.243 119.383 211.542 115.057 212.008 110.798C212.474 106.54 213.173 102.248 215.003 98.3548C215.868 96.5249 217.032 94.7948 218.396 93.3308Z" stroke="black" stroke-width="1.2" stroke-miterlimit="10" stroke-linecap="round" stroke-linejoin="round"/>
<path d="M298.515 27.353C300.611 30.4806 313.686 55.0683 313.686 55.0683C313.686 55.0683 309.161 75.1644 304.137 82.7837C291.993 93.1311 255.361 109.7 255.361 109.7C255.361 109.7 242.552 92.8982 239.923 82.0849C239.923 82.0849 261.35 35.5378 272.496 28.2181C274.991 26.8872 288.766 25.2902 297.184 27.0536" stroke="black" stroke-width="1.2" stroke-miterlimit="10" stroke-linecap="round" stroke-linejoin="round"/>
<path d="M239.956 82.0517L211.343 75.1312C211.343 75.1312 232.77 28.5841 243.949 21.2643C246.544 19.9002 261.716 18.1368 269.901 20.3992L297.217 27.0203L298.515 27.353L317 10.1121" stroke="black" stroke-width="1.2" stroke-miterlimit="10" stroke-linecap="round" stroke-linejoin="round"/>
<path d="M313.687 55.0351L331.5 37.6328" stroke="black" stroke-width="1.2" stroke-miterlimit="10" stroke-linecap="round" stroke-linejoin="round"/>
<path d="M211.343 75.1312C211.343 75.1312 212.041 85.3789 218.363 93.3308" stroke="black" stroke-width="1.2" stroke-miterlimit="10" stroke-linecap="round" stroke-linejoin="round"/>
<path d="M255.394 109.7L231.505 104.177" stroke="black" stroke-width="1.2" stroke-miterlimit="10" stroke-linecap="round" stroke-linejoin="round"/>
<path d="M268.537 18.5028L276.5 10.2195" stroke="black" stroke-width="1.2" stroke-miterlimit="10" stroke-linecap="round" stroke-linejoin="round"/>
<path d="M177.672 122.078C167.324 123.009 157.243 127.201 149.557 134.255" stroke="black" stroke-width="1.2" stroke-miterlimit="10" stroke-linecap="round" stroke-linejoin="round"/>
<path d="M143.302 129.431C148.459 124.706 168.589 115.889 179.701 119.283" stroke="black" stroke-width="1.2" stroke-miterlimit="10" stroke-linecap="round" stroke-linejoin="round"/>
<path d="M198.7 125.105C198.367 124.839 198.001 124.54 197.668 124.307" stroke="black" stroke-width="1.2" stroke-miterlimit="10" stroke-linecap="round" stroke-linejoin="round"/>
<path d="M135.151 207.053C142.57 217.401 155.247 223.756 167.957 223.623" stroke="black" stroke-width="1.2" stroke-miterlimit="10" stroke-linecap="round" stroke-linejoin="round"/>
<path d="M113.557 157.146C119.114 160.706 123.738 165.73 126.799 171.553C129.394 176.477 130.858 181.967 131.158 187.556" stroke="black" stroke-width="1.2" stroke-miterlimit="10" stroke-linecap="round" stroke-linejoin="round"/>
<path d="M243.949 21.2976L272.529 28.2181" stroke="black" stroke-width="1.2" stroke-miterlimit="10" stroke-linecap="round" stroke-linejoin="round"/>
<path d="M153.284 236.599C158.008 233.804 162.367 230.177 166.293 225.652C166.859 224.987 167.457 224.288 167.99 223.589C174.078 215.837 177.572 207.187 178.703 198.27C180.866 181.867 175.243 164.499 163.931 150.225C162.899 148.861 161.768 147.53 160.603 146.233C157.443 142.739 153.517 138.78 149.158 134.688C147.295 132.957 145.332 131.161 143.335 129.397C133.287 120.481 122.308 111.664 114.755 106.473C102.777 98.2883 89.1026 93.8632 75.8937 93.8632C60.7551 93.8632 46.2154 99.6524 35.3355 112.163C14.9732 135.686 18.8328 167.294 41.025 191.582C51.2394 202.795 73.5314 221.959 86.8734 231.309C93.195 235.734 99.9824 239.061 106.969 241.19" stroke="black" stroke-width="1.2" stroke-miterlimit="10" stroke-linecap="round" stroke-linejoin="round"/>
<path d="M127.431 209.316C130.293 209.083 132.855 208.318 135.151 207.02C136.947 205.989 138.611 204.625 140.075 202.928C145.598 196.573 145.232 188.887 142.67 182.133C140.773 177.076 137.613 172.551 134.851 169.456C130.858 165.031 124.936 159.408 118.648 153.885C110.197 146.432 101.047 139.146 95.158 135.087C88.9694 130.861 82.1155 128.532 75.8604 128.532C69.9047 128.532 65.2134 130.628 61.5203 134.887C50.4075 147.73 61.3872 162.469 66.6441 168.225C71.8678 173.948 81.9824 183.164 91.6977 191.183" stroke="black" stroke-width="1.2" stroke-miterlimit="10" stroke-linecap="round" stroke-linejoin="round"/>
<path d="M163.897 150.225C169.92 152.022 175.842 154.651 181.432 158.078C187.687 161.904 196.204 167.926 204.722 174.48C213.872 181.534 223.021 189.22 229.243 195.442C251.236 217.434 258.09 249.974 238.958 274.462C219.827 298.95 186.223 300.713 159.938 284.144C146.13 275.46 122.907 257.46 112.127 246.813C110.263 244.983 108.567 243.12 106.936 241.19C94.16 226.018 88.5371 208.151 91.6646 191.183C93.1618 183.031 96.6886 175.079 102.411 167.76C105.705 163.501 109.465 159.974 113.524 157.113C115.154 155.915 116.885 154.85 118.615 153.885" stroke="black" stroke-width="1.2" stroke-miterlimit="10" stroke-linecap="round" stroke-linejoin="round"/>
<path d="M142.67 182.166C137.979 182.632 134.186 184.395 131.158 187.556C130.659 188.055 130.226 188.588 129.761 189.153C124.337 196.107 124.87 203.294 127.432 209.349C129.794 214.939 133.886 219.564 136.548 222.192C140.341 225.952 146.53 231.209 153.284 236.599C161.968 243.486 171.583 250.573 178.404 254.832C184.526 258.691 191.313 260.621 197.468 260.321C203.491 260.022 208.115 257.66 211.675 253.135C220.759 241.49 211.609 226.817 204.755 219.963C198.6 213.808 188.252 205.357 178.703 198.27" stroke="black" stroke-width="1.2" stroke-miterlimit="10" stroke-linecap="round" stroke-linejoin="round"/>
<path d="M62.219 112.495C79.487 111.697 96.9879 116.455 111.727 125.904C114.921 127.967 117.783 129.863 121.01 131.859C122.64 132.858 124.77 133.889 126.3 132.691C127.432 131.826 127.631 130.063 127.099 128.699C126.6 127.334 125.535 126.303 124.47 125.338C111.661 113.493 95.3909 105.774 78.4223 103.545C70.6368 102.514 62.4187 102.68 55.2985 106.14C53.7015 106.906 51.9714 108.203 52.0046 110.033C52.0379 111.763 53.7015 113.061 55.3318 113.194C56.9288 113.394 60.5554 112.562 62.219 112.495Z" fill="white"/>
<path d="M185.956 178.307C185.158 177.575 184.359 176.809 183.927 175.811C183.528 174.813 183.594 173.549 184.393 172.817C185.025 172.218 186.023 172.085 186.888 172.318C187.753 172.517 188.518 173.016 189.25 173.482C200.662 180.736 211.842 188.621 220.725 198.835C221.224 199.401 221.723 200 221.923 200.699C222.156 201.397 222.023 202.296 221.457 202.761C220.958 203.161 220.226 203.227 219.627 203.028C219.028 202.828 218.496 202.429 217.964 202.063C213.572 198.736 209.18 195.442 204.755 192.114C200.862 189.12 188.086 180.203 185.956 178.307Z" fill="#FF788F"/>
<path d="M217.298 276.225C218.895 275.66 220.06 277.722 218.696 278.754C209.845 285.408 197.635 287.704 186.489 286.007C172.248 283.844 159.472 276.159 147.894 267.575C134.518 257.66 122.208 246.314 111.195 233.804C108.766 231.408 108.766 229.046 109.964 227.316C111.195 225.519 113.59 224.92 115.72 225.453C118.282 226.085 120.212 227.948 122.075 229.811C131.457 239.194 140.308 249.175 150.356 257.826C160.404 266.477 171.882 273.93 184.759 277.19C194.773 279.752 207.15 279.885 217.298 276.225Z" fill="#FF788F"/>
<path d="M198.433 169.59C202.725 154.917 204.555 135.453 198.4 125.105" stroke="black" stroke-width="1.2" stroke-miterlimit="10" stroke-linecap="round" stroke-linejoin="round"/>
<path d="M198.4 125.105C211.076 132.625 209.845 153.054 204.455 174.48" stroke="black" stroke-width="1.2" stroke-miterlimit="10" stroke-linecap="round" stroke-linejoin="round"/>
<path d="M296.285 56.7652C296.651 63.4196 293.124 72.4695 286.337 74.7985C282.444 76.1293 277.886 75.1977 274.858 72.4362C271.631 69.475 270.333 64.8502 270.599 60.4584C270.832 56.8983 272.03 53.305 274.259 50.5101C276.522 47.7153 279.816 45.6857 283.376 45.2532C286.936 44.8207 290.729 46.1183 293.158 48.78C295.121 50.9427 296.119 53.8373 296.285 56.7652Z" fill="white"/>
<path d="M289.864 58.5286C290.063 61.8558 288.3 66.3807 284.873 67.5453C282.943 68.2107 280.648 67.7449 279.117 66.3807C277.487 64.9168 276.855 62.5878 276.988 60.3918C277.087 58.5952 277.686 56.8318 278.818 55.4011C279.949 54.0037 281.612 52.9722 283.376 52.7726C285.139 52.573 287.069 53.2051 288.267 54.536C289.298 55.6007 289.797 57.0647 289.864 58.5286Z" fill="black"/>
<path d="M296.285 56.7652C296.119 53.8373 295.121 50.9426 293.158 48.78C290.762 46.1182 286.969 44.8539 283.376 45.2532C279.816 45.6857 276.522 47.682 274.259 50.5101C272.03 53.3049 270.832 56.8983 270.599 60.4583C270.3 64.8502 271.631 69.5082 274.858 72.4362C277.886 75.1977 282.444 76.1293 286.337 74.7984C290.163 73.5008 292.958 70.0739 294.588 66.1145" stroke="black" stroke-width="1.2" stroke-miterlimit="10" stroke-linecap="round" stroke-linejoin="round"/>
<path d="M149.191 36.0369C147.361 36.0369 145.764 37.634 145.764 39.4639V62.1219H56.4297C54.5997 62.1219 53.0027 63.719 53.0027 65.5489" stroke="white" stroke-width="2" stroke-miterlimit="10" stroke-linecap="round" stroke-linejoin="round"/>
<path d="M331.553 145.168V13.4122C331.553 11.5822 329.956 9.9852 328.126 9.9852H242.219C240.389 9.9852 238.792 11.5822 238.792 13.4122" stroke="white" stroke-width="2" stroke-miterlimit="10" stroke-linecap="round" stroke-linejoin="round"/>
</g>
<defs>
<clipPath id="clip0">
<rect width="368" height="297.99" fill="white"/>
</clipPath>
</defs>
</svg>
